<svg width="92" height="27" viewBox="0 0 92 27" fill="none" xmlns="http://www.w3.org/2000/svg">
<rect width="92" height="27" rx="4" fill="#EB0237"/>
<path d="M21.8608 18V9.27273H27.4517V10.598H23.4418V12.9673H27.0682V14.2926H23.4418V18H21.8608ZM28.8239 18V11.4545H30.3665V18H28.8239ZM29.5994 10.5256C29.3551 10.5256 29.1449 10.4446 28.9688 10.2827C28.7926 10.1179 28.7045 9.92045 28.7045 9.69034C28.7045 9.45739 28.7926 9.25994 28.9688 9.09801C29.1449 8.93324 29.3551 8.85085 29.5994 8.85085C29.8466 8.85085 30.0568 8.93324 30.2301 9.09801C30.4063 9.25994 30.4943 9.45739 30.4943 9.69034C30.4943 9.92045 30.4063 10.1179 30.2301 10.2827C30.0568 10.4446 29.8466 10.5256 29.5994 10.5256ZM33.4954 14.1648V18H31.9528V11.4545H33.4272V12.5668H33.5039C33.6545 12.2003 33.8945 11.9091 34.2241 11.6932C34.5565 11.4773 34.967 11.3693 35.4556 11.3693C35.9073 11.3693 36.3008 11.4659 36.636 11.6591C36.9741 11.8523 37.2354 12.1321 37.4201 12.4986C37.6076 12.8651 37.6999 13.3097 37.6971 13.8324V18H36.1545V14.071C36.1545 13.6335 36.0408 13.2912 35.8136 13.044C35.5891 12.7969 35.2781 12.6733 34.8803 12.6733C34.6104 12.6733 34.3704 12.733 34.1602 12.8523C33.9528 12.9687 33.7894 13.1378 33.6701 13.3594C33.5536 13.581 33.4954 13.8494 33.4954 14.1648ZM39.2653 18V11.4545H40.8079V18H39.2653ZM40.0408 10.5256C39.7965 10.5256 39.5863 10.4446 39.4102 10.2827C39.234 10.1179 39.146 9.92045 39.146 9.69034C39.146 9.45739 39.234 9.25994 39.4102 9.09801C39.5863 8.93324 39.7965 8.85085 40.0408 8.85085C40.288 8.85085 40.4982 8.93324 40.6715 9.09801C40.8477 9.25994 40.9357 9.45739 40.9357 9.69034C40.9357 9.92045 40.8477 10.1179 40.6715 10.2827C40.4982 10.4446 40.288 10.5256 40.0408 10.5256ZM47.5675 13.1847L46.1612 13.3381C46.1214 13.196 46.0518 13.0625 45.9524 12.9375C45.8558 12.8125 45.7251 12.7116 45.5604 12.6349C45.3956 12.5582 45.1939 12.5199 44.9553 12.5199C44.6342 12.5199 44.3643 12.5895 44.1456 12.7287C43.9297 12.8679 43.8232 13.0483 43.826 13.2699C43.8232 13.4602 43.8928 13.6151 44.0348 13.7344C44.1797 13.8537 44.4183 13.9517 44.7507 14.0284L45.8672 14.267C46.4865 14.4006 46.9467 14.6122 47.2479 14.902C47.5518 15.1918 47.7053 15.571 47.7081 16.0398C47.7053 16.4517 47.5845 16.8153 47.3459 17.1307C47.1101 17.4432 46.782 17.6875 46.3615 17.8636C45.9411 18.0398 45.4581 18.1278 44.9126 18.1278C44.1115 18.1278 43.4666 17.9602 42.978 17.625C42.4893 17.2869 42.1982 16.8168 42.1044 16.2145L43.6087 16.0696C43.6768 16.3651 43.8217 16.5881 44.0433 16.7386C44.2649 16.8892 44.5533 16.9645 44.9084 16.9645C45.2749 16.9645 45.5689 16.8892 45.7905 16.7386C46.0149 16.5881 46.1271 16.402 46.1271 16.1804C46.1271 15.9929 46.0547 15.8381 45.9098 15.7159C45.7678 15.5937 45.5462 15.5 45.245 15.4347L44.1286 15.2003C43.5007 15.0696 43.0362 14.8494 42.7351 14.5398C42.4339 14.2273 42.2848 13.8324 42.2876 13.3551C42.2848 12.9517 42.3942 12.6023 42.6158 12.3068C42.8402 12.0085 43.1513 11.7784 43.549 11.6165C43.9496 11.4517 44.4112 11.3693 44.9339 11.3693C45.701 11.3693 46.3047 11.5327 46.745 11.8594C47.1882 12.1861 47.4624 12.6278 47.5675 13.1847ZM50.5227 14.1648V18H48.9801V9.27273H50.4886V12.5668H50.5653C50.7188 12.1974 50.956 11.9062 51.277 11.6932C51.6009 11.4773 52.0128 11.3693 52.5128 11.3693C52.9673 11.3693 53.3636 11.4645 53.7017 11.6548C54.0398 11.8452 54.3011 12.1236 54.4858 12.4901C54.6733 12.8565 54.767 13.304 54.767 13.8324V18H53.2244V14.071C53.2244 13.6307 53.1108 13.2884 52.8835 13.044C52.6591 12.7969 52.3438 12.6733 51.9375 12.6733C51.6648 12.6733 51.4205 12.733 51.2045 12.8523C50.9915 12.9687 50.8239 13.1378 50.7017 13.3594C50.5824 13.581 50.5227 13.8494 50.5227 14.1648ZM59.2372 18.1278C58.581 18.1278 58.0142 17.9915 57.5369 17.7188C57.0625 17.4432 56.6974 17.054 56.4418 16.5511C56.1861 16.0455 56.0582 15.4503 56.0582 14.7656C56.0582 14.0923 56.1861 13.5014 56.4418 12.9929C56.7003 12.4815 57.0611 12.0838 57.5241 11.7997C57.9872 11.5128 58.5312 11.3693 59.1562 11.3693C59.5597 11.3693 59.9403 11.4347 60.2983 11.5653C60.6591 11.6932 60.9773 11.892 61.2528 12.1619C61.5313 12.4318 61.75 12.7756 61.9091 13.1932C62.0682 13.608 62.1477 14.1023 62.1477 14.6761V15.1491H56.7827V14.1094H60.669C60.6662 13.8139 60.6023 13.5511 60.4773 13.321C60.3523 13.0881 60.1776 12.9048 59.9531 12.7713C59.7315 12.6378 59.473 12.571 59.1776 12.571C58.8622 12.571 58.5852 12.6477 58.3466 12.8011C58.108 12.9517 57.9219 13.1506 57.7884 13.3977C57.6577 13.642 57.5909 13.9105 57.5881 14.2031V15.1108C57.5881 15.4915 57.6577 15.8182 57.7969 16.0909C57.9361 16.3608 58.1307 16.5682 58.3807 16.7131C58.6307 16.8551 58.9233 16.9261 59.2585 16.9261C59.483 16.9261 59.6861 16.8949 59.8679 16.8324C60.0497 16.767 60.2074 16.6719 60.3409 16.5469C60.4744 16.4219 60.5753 16.267 60.6435 16.0824L62.0838 16.2443C61.9929 16.625 61.8196 16.9574 61.5639 17.2415C61.3111 17.5227 60.9872 17.7415 60.5923 17.8977C60.1974 18.0511 59.7457 18.1278 59.2372 18.1278ZM65.8817 18.1151C65.3675 18.1151 64.9073 17.983 64.5011 17.7188C64.0948 17.4545 63.7738 17.071 63.538 16.5682C63.3022 16.0653 63.1843 15.4545 63.1843 14.7358C63.1843 14.0085 63.3036 13.3949 63.5423 12.8949C63.7837 12.392 64.109 12.0128 64.5181 11.7571C64.9272 11.4986 65.3832 11.3693 65.886 11.3693C66.2695 11.3693 66.5849 11.4347 66.832 11.5653C67.0792 11.6932 67.2752 11.848 67.4201 12.0298C67.565 12.2088 67.6772 12.3778 67.7567 12.5369H67.8207V9.27273H69.3675V18H67.8505V16.9688H67.7567C67.6772 17.1278 67.5621 17.2969 67.4116 17.4759C67.261 17.652 67.0621 17.8026 66.815 17.9276C66.5678 18.0526 66.2567 18.1151 65.8817 18.1151ZM66.3121 16.8494C66.6388 16.8494 66.9173 16.7614 67.1474 16.5852C67.3775 16.4062 67.5522 16.1577 67.6715 15.8395C67.7908 15.5213 67.8505 15.1506 67.8505 14.7273C67.8505 14.304 67.7908 13.9361 67.6715 13.6236C67.555 13.3111 67.3817 13.0682 67.1516 12.8949C66.9244 12.7216 66.6445 12.6349 66.3121 12.6349C65.9684 12.6349 65.6815 12.7244 65.4513 12.9034C65.2212 13.0824 65.0479 13.3295 64.9315 13.6449C64.815 13.9602 64.7567 14.321 64.7567 14.7273C64.7567 15.1364 64.815 15.5014 64.9315 15.8224C65.0508 16.1406 65.2255 16.392 65.4556 16.5767C65.6886 16.7585 65.9741 16.8494 66.3121 16.8494Z" fill="white"/>
</svg>
