<svg width="92" height="27" viewBox="0 0 92 27" fill="none" xmlns="http://www.w3.org/2000/svg">
<rect width="92" height="27" rx="4" fill="#43AD28"/>
<path d="M34.8608 18V9.27273H36.4418V16.6747H40.2855V18H34.8608ZM41.5895 18V11.4545H43.1321V18H41.5895ZM42.3651 10.5256C42.1207 10.5256 41.9105 10.4446 41.7344 10.2827C41.5582 10.1179 41.4702 9.92045 41.4702 9.69034C41.4702 9.45739 41.5582 9.25994 41.7344 9.09801C41.9105 8.93324 42.1207 8.85085 42.3651 8.85085C42.6122 8.85085 42.8224 8.93324 42.9957 9.09801C43.1719 9.25994 43.2599 9.45739 43.2599 9.69034C43.2599 9.92045 43.1719 10.1179 42.9957 10.2827C42.8224 10.4446 42.6122 10.5256 42.3651 10.5256ZM50.565 11.4545L48.234 18H46.5295L44.1985 11.4545H45.8434L47.3477 16.3168H47.4158L48.9244 11.4545H50.565ZM54.3075 18.1278C53.6513 18.1278 53.0845 17.9915 52.6072 17.7188C52.1328 17.4432 51.7678 17.054 51.5121 16.5511C51.2564 16.0455 51.1286 15.4503 51.1286 14.7656C51.1286 14.0923 51.2564 13.5014 51.5121 12.9929C51.7706 12.4815 52.1314 12.0838 52.5945 11.7997C53.0575 11.5128 53.6016 11.3693 54.2266 11.3693C54.63 11.3693 55.0107 11.4347 55.3686 11.5653C55.7294 11.6932 56.0476 11.892 56.3232 12.1619C56.6016 12.4318 56.8203 12.7756 56.9794 13.1932C57.1385 13.608 57.218 14.1023 57.218 14.6761V15.1491H51.853V14.1094H55.7393C55.7365 13.8139 55.6726 13.5511 55.5476 13.321C55.4226 13.0881 55.2479 12.9048 55.0234 12.7713C54.8018 12.6378 54.5433 12.571 54.2479 12.571C53.9325 12.571 53.6555 12.6477 53.4169 12.8011C53.1783 12.9517 52.9922 13.1506 52.8587 13.3977C52.728 13.642 52.6612 13.9105 52.6584 14.2031V15.1108C52.6584 15.4915 52.728 15.8182 52.8672 16.0909C53.0064 16.3608 53.201 16.5682 53.451 16.7131C53.701 16.8551 53.9936 16.9261 54.3288 16.9261C54.5533 16.9261 54.7564 16.8949 54.9382 16.8324C55.12 16.767 55.2777 16.6719 55.4112 16.5469C55.5447 16.4219 55.6456 16.267 55.7138 16.0824L57.1541 16.2443C57.0632 16.625 56.8899 16.9574 56.6342 17.2415C56.3814 17.5227 56.0575 17.7415 55.6626 17.8977C55.2678 18.0511 54.8161 18.1278 54.3075 18.1278Z" fill="white"/>
</svg>
