<svg width="112" height="27" viewBox="0 0 112 27" fill="none" xmlns="http://www.w3.org/2000/svg">
<rect width="112" height="27" rx="4" fill="#EB6402"/>
<path d="M8.8608 9.27273H10.7955L13.3864 15.5966H13.4886L16.0795 9.27273H18.0142V18H16.4972V12.0043H16.4162L14.0043 17.9744H12.8707L10.4588 11.9915H10.3778V18H8.8608V9.27273ZM21.5511 18.1321C21.1364 18.1321 20.7628 18.0582 20.4304 17.9105C20.1009 17.7599 19.8395 17.5384 19.6463 17.2457C19.456 16.9531 19.3608 16.5923 19.3608 16.1634C19.3608 15.794 19.429 15.4886 19.5653 15.2472C19.7017 15.0057 19.8878 14.8125 20.1236 14.6676C20.3594 14.5227 20.625 14.4134 20.9205 14.3395C21.2188 14.2628 21.527 14.2074 21.8452 14.1733C22.2287 14.1335 22.5398 14.098 22.7784 14.0668C23.017 14.0327 23.1903 13.9815 23.2983 13.9134C23.4091 13.8423 23.4645 13.733 23.4645 13.5852V13.5597C23.4645 13.2386 23.3693 12.9901 23.179 12.8139C22.9886 12.6378 22.7145 12.5497 22.3565 12.5497C21.9787 12.5497 21.679 12.6321 21.4574 12.7969C21.2386 12.9616 21.0909 13.1562 21.0142 13.3807L19.5739 13.1761C19.6875 12.7784 19.875 12.446 20.1364 12.179C20.3977 11.9091 20.7173 11.7074 21.0952 11.5739C21.473 11.4375 21.8906 11.3693 22.348 11.3693C22.6634 11.3693 22.9773 11.4062 23.2898 11.4801C23.6023 11.554 23.8878 11.6761 24.1463 11.8466C24.4048 12.0142 24.6122 12.2429 24.7685 12.5327C24.9276 12.8224 25.0071 13.1847 25.0071 13.6193V18H23.5241V17.1009H23.473C23.3793 17.2827 23.2472 17.4531 23.0767 17.6122C22.9091 17.7685 22.6974 17.8949 22.4418 17.9915C22.1889 18.0852 21.892 18.1321 21.5511 18.1321ZM21.9517 16.9986C22.2614 16.9986 22.5298 16.9375 22.7571 16.8153C22.9844 16.6903 23.1591 16.5256 23.2812 16.321C23.4062 16.1165 23.4688 15.8935 23.4688 15.652V14.8807C23.4205 14.9205 23.3381 14.9574 23.2216 14.9915C23.108 15.0256 22.9801 15.0554 22.8381 15.081C22.696 15.1065 22.5554 15.1293 22.4162 15.1491C22.277 15.169 22.1563 15.1861 22.054 15.2003C21.8239 15.2315 21.6179 15.2827 21.4361 15.3537C21.2543 15.4247 21.1108 15.5241 21.0057 15.652C20.9006 15.777 20.848 15.9389 20.848 16.1378C20.848 16.4219 20.9517 16.6364 21.1591 16.7812C21.3665 16.9261 21.6307 16.9986 21.9517 16.9986ZM29.8267 11.4545V12.6477H26.0639V11.4545H29.8267ZM26.9929 9.88636H28.5355V16.0312C28.5355 16.2386 28.5668 16.3977 28.6293 16.5085C28.6946 16.6165 28.7798 16.6903 28.8849 16.7301C28.9901 16.7699 29.1065 16.7898 29.2344 16.7898C29.331 16.7898 29.419 16.7827 29.4986 16.7685C29.581 16.7543 29.6435 16.7415 29.6861 16.7301L29.946 17.9361C29.8636 17.9645 29.7457 17.9957 29.5923 18.0298C29.4418 18.0639 29.2571 18.0838 29.0384 18.0895C28.652 18.1009 28.304 18.0426 27.9943 17.9148C27.6847 17.7841 27.4389 17.5824 27.2571 17.3097C27.0781 17.0369 26.9901 16.696 26.9929 16.2869V9.88636ZM33.9016 18.1278C33.2482 18.1278 32.6871 17.9844 32.2184 17.6974C31.7525 17.4105 31.3931 17.0142 31.1403 16.5085C30.8903 16 30.7653 15.4148 30.7653 14.7528C30.7653 14.0881 30.8931 13.5014 31.1488 12.9929C31.4045 12.4815 31.7653 12.0838 32.2312 11.7997C32.6999 11.5128 33.2539 11.3693 33.8931 11.3693C34.4244 11.3693 34.8945 11.4673 35.3036 11.6634C35.7156 11.8565 36.0437 12.1307 36.288 12.4858C36.5323 12.8381 36.6715 13.25 36.7056 13.7216H35.2312C35.1715 13.4062 35.0295 13.1435 34.805 12.9332C34.5835 12.7202 34.2866 12.6136 33.9144 12.6136C33.5991 12.6136 33.3221 12.6989 33.0835 12.8693C32.8448 13.0369 32.6587 13.2784 32.5252 13.5938C32.3945 13.9091 32.3292 14.2869 32.3292 14.7273C32.3292 15.1733 32.3945 15.5568 32.5252 15.8778C32.6559 16.196 32.8391 16.4418 33.0749 16.6151C33.3136 16.7855 33.5934 16.8707 33.9144 16.8707C34.1417 16.8707 34.3448 16.8281 34.5238 16.7429C34.7056 16.6548 34.8576 16.5284 34.9798 16.3636C35.1019 16.1989 35.1857 15.9986 35.2312 15.7628H36.7056C36.6687 16.2259 36.5323 16.6364 36.2965 16.9943C36.0607 17.3494 35.7397 17.6278 35.3335 17.8295C34.9272 18.0284 34.4499 18.1278 33.9016 18.1278ZM39.5149 14.1648V18H37.9723V9.27273H39.4808V12.5668H39.5575C39.7109 12.1974 39.9482 11.9062 40.2692 11.6932C40.593 11.4773 41.005 11.3693 41.505 11.3693C41.9595 11.3693 42.3558 11.4645 42.6939 11.6548C43.032 11.8452 43.2933 12.1236 43.478 12.4901C43.6655 12.8565 43.7592 13.304 43.7592 13.8324V18H42.2166V14.071C42.2166 13.6307 42.103 13.2884 41.8757 13.044C41.6513 12.7969 41.3359 12.6733 40.9297 12.6733C40.657 12.6733 40.4126 12.733 40.1967 12.8523C39.9837 12.9687 39.8161 13.1378 39.6939 13.3594C39.5746 13.581 39.5149 13.8494 39.5149 14.1648ZM48.3082 20.4545V11.4545H49.8253V12.5369H49.9148C49.9943 12.3778 50.1065 12.2088 50.2514 12.0298C50.3963 11.848 50.5923 11.6932 50.8395 11.5653C51.0866 11.4347 51.402 11.3693 51.7855 11.3693C52.2912 11.3693 52.7472 11.4986 53.1534 11.7571C53.5625 12.0128 53.8864 12.392 54.125 12.8949C54.3665 13.3949 54.4872 14.0085 54.4872 14.7358C54.4872 15.4545 54.3693 16.0653 54.1335 16.5682C53.8977 17.071 53.5767 17.4545 53.1705 17.7188C52.7642 17.983 52.304 18.1151 51.7898 18.1151C51.4148 18.1151 51.1037 18.0526 50.8565 17.9276C50.6094 17.8026 50.4105 17.652 50.2599 17.4759C50.1122 17.2969 49.9972 17.1278 49.9148 16.9688H49.8509V20.4545H48.3082ZM49.821 14.7273C49.821 15.1506 49.8807 15.5213 50 15.8395C50.1222 16.1577 50.2969 16.4062 50.5241 16.5852C50.7543 16.7614 51.0327 16.8494 51.3594 16.8494C51.7003 16.8494 51.9858 16.7585 52.2159 16.5767C52.446 16.392 52.6193 16.1406 52.7358 15.8224C52.8551 15.5014 52.9148 15.1364 52.9148 14.7273C52.9148 14.321 52.8565 13.9602 52.7401 13.6449C52.6236 13.3295 52.4503 13.0824 52.2202 12.9034C51.9901 12.7244 51.7031 12.6349 51.3594 12.6349C51.0298 12.6349 50.75 12.7216 50.5199 12.8949C50.2898 13.0682 50.1151 13.3111 49.9957 13.6236C49.8793 13.9361 49.821 14.304 49.821 14.7273ZM55.8082 18V11.4545H57.304V12.5455H57.3722C57.4915 12.1676 57.696 11.8764 57.9858 11.6719C58.2784 11.4645 58.6122 11.3608 58.9872 11.3608C59.0724 11.3608 59.1676 11.3651 59.2727 11.3736C59.3807 11.3793 59.4702 11.3892 59.5412 11.4034V12.8224C59.4759 12.7997 59.3722 12.7798 59.2301 12.7628C59.0909 12.7429 58.956 12.733 58.8253 12.733C58.544 12.733 58.2912 12.794 58.0668 12.9162C57.8452 13.0355 57.6705 13.2017 57.5426 13.4148C57.4148 13.6278 57.3509 13.8736 57.3509 14.152V18H55.8082ZM63.1942 18.1278C62.538 18.1278 61.9712 17.9915 61.494 17.7188C61.0195 17.4432 60.6545 17.054 60.3988 16.5511C60.1431 16.0455 60.0153 15.4503 60.0153 14.7656C60.0153 14.0923 60.1431 13.5014 60.3988 12.9929C60.6573 12.4815 61.0181 12.0838 61.4812 11.7997C61.9442 11.5128 62.4883 11.3693 63.1133 11.3693C63.5167 11.3693 63.8974 11.4347 64.2553 11.5653C64.6161 11.6932 64.9343 11.892 65.2099 12.1619C65.4883 12.4318 65.707 12.7756 65.8661 13.1932C66.0252 13.608 66.1048 14.1023 66.1048 14.6761V15.1491H60.7397V14.1094H64.6261C64.6232 13.8139 64.5593 13.5511 64.4343 13.321C64.3093 13.0881 64.1346 12.9048 63.9102 12.7713C63.6886 12.6378 63.43 12.571 63.1346 12.571C62.8192 12.571 62.5423 12.6477 62.3036 12.8011C62.065 12.9517 61.8789 13.1506 61.7454 13.3977C61.6147 13.642 61.5479 13.9105 61.5451 14.2031V15.1108C61.5451 15.4915 61.6147 15.8182 61.7539 16.0909C61.8931 16.3608 62.0877 16.5682 62.3377 16.7131C62.5877 16.8551 62.8803 16.9261 63.2156 16.9261C63.44 16.9261 63.6431 16.8949 63.8249 16.8324C64.0067 16.767 64.1644 16.6719 64.2979 16.5469C64.4315 16.4219 64.5323 16.267 64.6005 16.0824L66.0408 16.2443C65.9499 16.625 65.7766 16.9574 65.521 17.2415C65.2681 17.5227 64.9442 17.7415 64.5494 17.8977C64.1545 18.0511 63.7028 18.1278 63.1942 18.1278ZM67.4098 20.4545V11.4545H68.9268V12.5369H69.0163C69.0959 12.3778 69.2081 12.2088 69.353 12.0298C69.4979 11.848 69.6939 11.6932 69.9411 11.5653C70.1882 11.4347 70.5036 11.3693 70.8871 11.3693C71.3928 11.3693 71.8487 11.4986 72.255 11.7571C72.6641 12.0128 72.9879 12.392 73.2266 12.8949C73.468 13.3949 73.5888 14.0085 73.5888 14.7358C73.5888 15.4545 73.4709 16.0653 73.2351 16.5682C72.9993 17.071 72.6783 17.4545 72.272 17.7188C71.8658 17.983 71.4055 18.1151 70.8913 18.1151C70.5163 18.1151 70.2053 18.0526 69.9581 17.9276C69.7109 17.8026 69.5121 17.652 69.3615 17.4759C69.2138 17.2969 69.0987 17.1278 69.0163 16.9688H68.9524V20.4545H67.4098ZM68.9226 14.7273C68.9226 15.1506 68.9822 15.5213 69.1016 15.8395C69.2237 16.1577 69.3984 16.4062 69.6257 16.5852C69.8558 16.7614 70.1342 16.8494 70.4609 16.8494C70.8018 16.8494 71.0874 16.7585 71.3175 16.5767C71.5476 16.392 71.7209 16.1406 71.8374 15.8224C71.9567 15.5014 72.0163 15.1364 72.0163 14.7273C72.0163 14.321 71.9581 13.9602 71.8416 13.6449C71.7251 13.3295 71.5518 13.0824 71.3217 12.9034C71.0916 12.7244 70.8047 12.6349 70.4609 12.6349C70.1314 12.6349 69.8516 12.7216 69.6214 12.8949C69.3913 13.0682 69.2166 13.3111 69.0973 13.6236C68.9808 13.9361 68.9226 14.304 68.9226 14.7273ZM76.7933 18.1321C76.3786 18.1321 76.005 18.0582 75.6726 17.9105C75.343 17.7599 75.0817 17.5384 74.8885 17.2457C74.6982 16.9531 74.603 16.5923 74.603 16.1634C74.603 15.794 74.6712 15.4886 74.8075 15.2472C74.9439 15.0057 75.13 14.8125 75.3658 14.6676C75.6016 14.5227 75.8672 14.4134 76.1626 14.3395C76.4609 14.2628 76.7692 14.2074 77.0874 14.1733C77.4709 14.1335 77.782 14.098 78.0206 14.0668C78.2592 14.0327 78.4325 13.9815 78.5405 13.9134C78.6513 13.8423 78.7067 13.733 78.7067 13.5852V13.5597C78.7067 13.2386 78.6115 12.9901 78.4212 12.8139C78.2308 12.6378 77.9567 12.5497 77.5987 12.5497C77.2209 12.5497 76.9212 12.6321 76.6996 12.7969C76.4808 12.9616 76.3331 13.1562 76.2564 13.3807L74.8161 13.1761C74.9297 12.7784 75.1172 12.446 75.3786 12.179C75.6399 11.9091 75.9595 11.7074 76.3374 11.5739C76.7152 11.4375 77.1328 11.3693 77.5902 11.3693C77.9055 11.3693 78.2195 11.4062 78.532 11.4801C78.8445 11.554 79.13 11.6761 79.3885 11.8466C79.647 12.0142 79.8544 12.2429 80.0107 12.5327C80.1697 12.8224 80.2493 13.1847 80.2493 13.6193V18H78.7663V17.1009H78.7152C78.6214 17.2827 78.4893 17.4531 78.3189 17.6122C78.1513 17.7685 77.9396 17.8949 77.6839 17.9915C77.4311 18.0852 77.1342 18.1321 76.7933 18.1321ZM77.1939 16.9986C77.5036 16.9986 77.772 16.9375 77.9993 16.8153C78.2266 16.6903 78.4013 16.5256 78.5234 16.321C78.6484 16.1165 78.7109 15.8935 78.7109 15.652V14.8807C78.6626 14.9205 78.5803 14.9574 78.4638 14.9915C78.3501 15.0256 78.2223 15.0554 78.0803 15.081C77.9382 15.1065 77.7976 15.1293 77.6584 15.1491C77.5192 15.169 77.3984 15.1861 77.2962 15.2003C77.0661 15.2315 76.8601 15.2827 76.6783 15.3537C76.4964 15.4247 76.353 15.5241 76.2479 15.652C76.1428 15.777 76.0902 15.9389 76.0902 16.1378C76.0902 16.4219 76.1939 16.6364 76.4013 16.7812C76.6087 16.9261 76.8729 16.9986 77.1939 16.9986ZM81.8004 18V11.4545H83.2962V12.5455H83.3643C83.4837 12.1676 83.6882 11.8764 83.978 11.6719C84.2706 11.4645 84.6044 11.3608 84.9794 11.3608C85.0646 11.3608 85.1598 11.3651 85.2649 11.3736C85.3729 11.3793 85.4624 11.3892 85.5334 11.4034V12.8224C85.468 12.7997 85.3643 12.7798 85.2223 12.7628C85.0831 12.7429 84.9482 12.733 84.8175 12.733C84.5362 12.733 84.2834 12.794 84.0589 12.9162C83.8374 13.0355 83.6626 13.2017 83.5348 13.4148C83.407 13.6278 83.343 13.8736 83.343 14.152V18H81.8004ZM86.5582 18V11.4545H88.1009V18H86.5582ZM87.3338 10.5256C87.0895 10.5256 86.8793 10.4446 86.7031 10.2827C86.527 10.1179 86.4389 9.92045 86.4389 9.69034C86.4389 9.45739 86.527 9.25994 86.7031 9.09801C86.8793 8.93324 87.0895 8.85085 87.3338 8.85085C87.581 8.85085 87.7912 8.93324 87.9645 9.09801C88.1406 9.25994 88.2287 9.45739 88.2287 9.69034C88.2287 9.92045 88.1406 10.1179 87.9645 10.2827C87.7912 10.4446 87.581 10.5256 87.3338 10.5256ZM91.2298 14.1648V18H89.6871V11.4545H91.1616V12.5668H91.2383C91.3888 12.2003 91.6289 11.9091 91.9585 11.6932C92.2908 11.4773 92.7013 11.3693 93.19 11.3693C93.6417 11.3693 94.0352 11.4659 94.3704 11.6591C94.7085 11.8523 94.9698 12.1321 95.1545 12.4986C95.342 12.8651 95.4343 13.3097 95.4315 13.8324V18H93.8888V14.071C93.8888 13.6335 93.7752 13.2912 93.5479 13.044C93.3235 12.7969 93.0124 12.6733 92.6147 12.6733C92.3448 12.6733 92.1048 12.733 91.8945 12.8523C91.6871 12.9687 91.5238 13.1378 91.4045 13.3594C91.288 13.581 91.2298 13.8494 91.2298 14.1648ZM99.8462 20.5909C99.2923 20.5909 98.8164 20.5156 98.4187 20.3651C98.021 20.2173 97.7013 20.0185 97.4599 19.7685C97.2184 19.5185 97.0508 19.2415 96.957 18.9375L98.3462 18.6009C98.4087 18.7287 98.4996 18.8551 98.619 18.9801C98.7383 19.108 98.8988 19.2131 99.1005 19.2955C99.305 19.3807 99.5621 19.4233 99.8718 19.4233C100.309 19.4233 100.672 19.3168 100.958 19.1037C101.245 18.8935 101.389 18.5469 101.389 18.0639V16.8239H101.312C101.233 16.983 101.116 17.1463 100.963 17.3139C100.812 17.4815 100.612 17.6222 100.362 17.7358C100.115 17.8494 99.8036 17.9062 99.4286 17.9062C98.9258 17.9062 98.4698 17.7884 98.0607 17.5526C97.6545 17.3139 97.3306 16.9588 97.0891 16.4872C96.8505 16.0128 96.7312 15.419 96.7312 14.706C96.7312 13.9872 96.8505 13.3807 97.0891 12.8864C97.3306 12.3892 97.6559 12.0128 98.065 11.7571C98.4741 11.4986 98.93 11.3693 99.4329 11.3693C99.8164 11.3693 100.132 11.4347 100.379 11.5653C100.629 11.6932 100.828 11.848 100.975 12.0298C101.123 12.2088 101.235 12.3778 101.312 12.5369H101.397V11.4545H102.919V18.1065C102.919 18.6662 102.785 19.1293 102.518 19.4957C102.251 19.8622 101.886 20.1364 101.423 20.3182C100.96 20.5 100.434 20.5909 99.8462 20.5909ZM99.859 16.696C100.186 16.696 100.464 16.6165 100.694 16.4574C100.924 16.2983 101.099 16.0696 101.218 15.7713C101.338 15.473 101.397 15.1151 101.397 14.6974C101.397 14.2855 101.338 13.9247 101.218 13.6151C101.102 13.3054 100.929 13.0653 100.699 12.8949C100.471 12.7216 100.191 12.6349 99.859 12.6349C99.5153 12.6349 99.2283 12.7244 98.9982 12.9034C98.7681 13.0824 98.5948 13.3281 98.4783 13.6406C98.3619 13.9503 98.3036 14.3026 98.3036 14.6974C98.3036 15.098 98.3619 15.4489 98.4783 15.75C98.5977 16.0483 98.7724 16.2812 99.0025 16.4489C99.2354 16.6136 99.521 16.696 99.859 16.696Z" fill="white"/>
</svg>
